# AST/ASF file generated using VICON BodyLanguage
# -----------------------------------------------
:version 1.10
:name VICON
:units
  mass 1.0
  length 0.45
  angle deg
:documentation
   .ast/.asf automatically generated from VICON data using
   VICON BodyBuilder and BodyLanguage model FoxedUp or BRILLIANT.MOD
:root
   order TX TY TZ RX RY RZ
   axis XYZ
   position 0 0 0  
   orientation 0 0 0 
:bonedata
  begin
     id 1 
     name lhipjoint
     direction 0.64773 -0.699417 0.302095 
     length 2.48597 
     axis 0 0 0  XYZ
  end
  begin
     id 2 
     name lfemur
     direction 0.34202 -0.939693 0  
     length 6.71947  
     axis 0 0 20  XYZ
    dof rx ry rz
    limits (-160.0 20.0)
           (-70.0 70.0)
           (-60.0 70.0)
  end
  begin
     id 3 
     name ltibia
     direction 0.34202 -0.939693 0   
     length 8.08777   
     axis 0 0 20   XYZ
    dof rx
    limits (-10.0 170.0)
  end
  begin
     id 4 
     name lfoot
     direction 0.0808503 -0.222134 0.971658   
     length 2.08264   
     axis -90 7.62852e-016 20   XYZ
    dof rx rz
    limits (-45.0 90.0)
           (-70.0 20.0)
  end
  begin
     id 5 
     name ltoes
     direction 1.53502e-011 -4.22007e-011 1   
     length 1.04662   
     axis -90 7.62852e-016 20   XYZ
    dof rx
    limits (-90.0 20.0)
  end
  begin
     id 6 
     name rhipjoint
     direction -0.610924 -0.726792 0.313919   
     length 2.39233  
     axis 0 0 0  XYZ 
  end
  begin
     id 7 
     name rfemur
     direction -0.34202 -0.939693 0   
     length 6.96955   
     axis 0 0 -20   XYZ
    dof rx ry rz
    limits (-160.0 20.0)
           (-70.0 70.0)
           (-70.0 60.0)
  end
  begin
     id 8 
     name rtibia
     direction -0.34202 -0.939693 0   
     length 8.19584   
     axis 0 0 -20   XYZ
    dof rx
    limits (-10.0 170.0)
 end
 begin
     id 9 
     name rfoot
     direction -0.077777 -0.213691 0.9738   
     length 2.07539  
     axis -90 -7.62852e-016 -20   XYZ
    dof rx rz
    limits (-45.0 90.0)
           (-20.0 70.0)
  end
  begin
     id 10 
     name rtoes
     direction -1.53558e-011 -4.22006e-011 1   
     length 1.04381   
     axis -90 -7.62852e-016 -20   XYZ
    dof rx
    limits (-90.0 20.0)
  end
  begin
     id 11 
     name lowerback
     direction -0.00971646 0.996074 0.0879841   
     length 1.67643   
     axis 0 0 0   XYZ
    dof rx ry rz
    limits (-20.0 45.0)
           (-30.0 30.0)
           (-30.0 30.0)
  end
  begin
     id 12 
     name upperback
     direction 0.0127391 0.991676 0.128127   
     length 1.63741   
     axis 0 0 0   XYZ
    dof rx ry rz
    limits (-20.0 45.0)
           (-30.0 30.0)
           (-30.0 30.0)
  end
  begin
     id 13 
     name thorax
     direction 0.0167583 0.996049 0.0872067   
     length 1.65931   
     axis 0 0 0   XYZ
    dof rx ry rz
    limits (-20.0 45.0)
           (-30.0 30.0)
           (-30.0 30.0)
  end
  begin
     id 14 
     name lowerneck
     direction -0.0317829 0.998312 0.0486079   
     length 1.79021   
     axis 0 0 0   XYZ
    dof rx ry rz
    limits (-20.0 45.0)
           (-30.0 30.0)
           (-30.0 30.0)
  end
  begin
     id 15 
     name upperneck
     direction 0.0896851 0.972452 -0.215159   
     length 1.78797   
     axis 0 0 0   XYZ
    dof rx ry rz
    limits (-20.0 45.0)
           (-30.0 30.0)
           (-30.0 30.0)
  end
  begin
     id 16
     name head
     direction 0.0310949 0.996503 -0.0775582  
     length 1.81549  
     axis 0 0 0   XYZ
    dof rx ry rz
    limits (-20.0 45.0)
           (-30.0 30.0)
           (-30.0 30.0)
  end
  begin
     id 17 
     name lclavicle
     direction 0.853638 0.502051 -0.138733  
     length 3.31627  
     axis 0 0 0   XYZ
    dof ry rz
    limits (-20.0 10.0)
           (0.0 20.0)
  end
  begin
     id 18 
     name lhumerus
     direction 1 -4.48962e-011 -1.41788e-018   
     length 5.54893   
     axis 180 -30 -90   XYZ
    dof rx ry rz
    limits (-60.0 90.0)
           (-90.0 90.0)
           (-90.0 90.0)
  end
  begin
     id 19
     name lradius
     direction 1 -4.48962e-011 -4.95754e-027   
     length 3.02898   
     axis 180 -30 -90   XYZ
    dof rx
    limits (-10.0 170.0)
  end
  begin
     id 20
     name lwrist
     direction 1 -4.48952e-011 -1.03764e-026   
     length 1.51449   
     axis 9.09556e-015 90 90   XYZ
    dof ry
    limits (-180.0 0.0)
 end
  begin
     id 21 
     name lhand
     direction 1 -4.4902e-011 -2.07528e-026   
     length 0.640951   
     axis 1.3242e-014 90 90   XYZ
    dof rx rz
    limits (-90.0 90.0)
           (-45.0 45.0)
  end
  begin
     id 22 
     name lfingers
     direction 1 -4.49014e-011 -4.15056e-026   
     length 0.516751   
     axis 2.64841e-014 90 90   XYZ
    dof rx
    limits (0.0 90.0)
  end
  begin
     id 23
     name lthumb
     direction 0.707107 -6.35008e-011 0.707107   
     length 0.741954   
     axis -90 45 2.85299e-015   XYZ
    dof rx rz
    limits (-45.0 45.0)
           (-45.0 45.0)
  end
  begin
     id 24 
     name rclavicle
     direction -0.888531 0.455324 -0.0565039   
     length 3.20126  
     axis 0 0 0   XYZ 
    dof ry rz
    limits (-10.0 20.0)
           (-20.0 0.0)
  end
  begin
     id 25 
     name rhumerus
     direction -1 -4.48946e-011 -8.98298e-028  
     length 5.3519   
     axis 180 30 90   XYZ
    dof rx ry rz
    limits (-90.0 60.0)
           (-90.0 90.0)
           (-90.0 90.0)
  end
  begin
     id 26 
     name rradius
     direction -1 -4.4899e-011 -3.18779e-027   
     length 3.02531   
     axis 180 30 90   XYZ
    dof rx
    limits (-10.0 170.0)
  end
  begin
     id 27 
     name rwrist
     direction -1 -4.4897e-011 -1.03764e-026   
     length 1.51266   
     axis 9.09556e-015 -90 -90   XYZ
    dof ry
    limits (-180.0 0.0)
  end
  begin
     id 28
     name rhand
     direction -1 -4.48941e-011 -2.07528e-026   
     length 0.78389   
     axis 1.3242e-014 -90 -90   XYZ
    dof rx rz
    limits (-90.0 90.0)
           (-45.0 45.0)
  end
  begin
     id 29
     name rfingers
     direction -1 -4.49012e-011 -4.15056e-026   
     length 0.631992   
     axis 2.64841e-014 -90 -90   XYZ
    dof rx
    limits (0.0 90.0)
  end
  begin
     id 30
     name rthumb
     direction -0.707107 -6.3496e-011 0.707107   
     length 0.907418   
     axis -90 -45 -2.85299e-015   XYZ
    dof rx rz
    limits (-45.0 45.0)
           (-45.0 45.0)
  end
:hierarchy
  begin
    root lhipjoint rhipjoint lowerback
    lhipjoint lfemur
    lfemur ltibia
    ltibia lfoot
    lfoot ltoes
    rhipjoint rfemur
    rfemur rtibia
    rtibia rfoot
    rfoot rtoes
    lowerback upperback
    upperback thorax
    thorax lowerneck lclavicle rclavicle
    lowerneck upperneck
    upperneck head
    lclavicle lhumerus
    lhumerus lradius
    lradius lwrist
    lwrist lhand lthumb
    lhand lfingers
    rclavicle rhumerus
    rhumerus rradius
    rradius rwrist
    rwrist rhand rthumb
    rhand rfingers
  end

#!OML:ASF E:\Style3\Style3.ASF
:FULLY-SPECIFIED
:DEGREES
929
root -0.415095 17.4259 0.950137 -489.372 43.1983 -535.362
lowerback 24.0246 -0.720013 -8.12238
upperback 14.5935 -1.1575 -5.03344
thorax 3.00224 -0.37372 -0.61323
lowerneck -7.74695 -12.945 -9.00033
upperneck 23.479 -20.6525 18.0806
head 11.9764 -8.60366 5.15015
rclavicle 6.04305e-014 -3.97569e-015
rhumerus 79.811 0.00225863 -16.7346
rradius 22.6063
rwrist 59.9952
rhand -28.3999 39.3604
rfingers 7.12502
rthumb -1.77214 9.38803
lclavicle 6.04305e-014 -3.97569e-015
lhumerus 44.3642 -57.7471 68.7527
lradius 113.458
lwrist 101.31
lhand -16.632 24.6542
lfingers 7.12502
lthumb 9.59039 54.4159
rfemur -59.122 -14.5078 38.5876
rtibia 32.3074
rfoot -15.9993 -24.5735
rtoes -16.12
lfemur -70.9723 -18.8435 23.0275
ltibia 18.184
lfoot 1.42842 15.6603
ltoes -36.2412
930
root -0.42701 17.4216 0.92075 -489.406 43.1249 -535.465
lowerback 24.0246 -0.720013 -8.12238
upperback 14.5935 -1.1575 -5.03344
thorax 3.00224 -0.37372 -0.61323
lowerneck -7.74695 -12.945 -9.00033
upperneck 23.479 -20.6525 18.0806
head 11.9764 -8.60366 5.15015
rclavicle 6.04305e-014 -3.97569e-015
rhumerus 79.811 0.00225863 -16.7346
rradius 22.6063
rwrist 59.9952
rhand -28.3999 39.3604
rfingers 7.12502
rthumb -1.77214 9.38803
lclavicle 6.04305e-014 -3.97569e-015
lhumerus 44.3642 -57.7471 68.7527
lradius 113.458
lwrist 101.31
lhand -16.632 24.6542
lfingers 7.12502
lthumb 9.59039 54.4159
rfemur -59.216 -14.6895 38.527
rtibia 32.2871
rfoot -15.6117 -24.5459
rtoes -16.3177
lfemur -71.0829 -18.781 22.651
ltibia 18.289
lfoot 1.41223 15.252
ltoes -36.4239
931
root -0.402013 17.4484 0.90455 -489.504 43.2573 -535.105
lowerback 24.0246 -0.720013 -8.12238
upperback 14.5935 -1.1575 -5.03344
thorax 3.00224 -0.37372 -0.61323
lowerneck -7.74695 -12.945 -9.00033
upperneck 23.479 -20.6525 18.0806
head 11.9764 -8.60366 5.15015
rclavicle 6.04305e-014 -3.97569e-015
rhumerus 79.811 0.00225863 -16.7346
rradius 22.6063
rwrist 59.9952
rhand -28.3999 39.3604
rfingers 7.12502
rthumb -1.77214 9.38803
lclavicle 6.04305e-014 -3.97569e-015
lhumerus 44.3642 -57.7471 68.7527
lradius 113.458
lwrist 101.31
lhand -16.632 24.6542
lfingers 7.12502
lthumb 9.59039 54.4159
rfemur -58.5611 -14.4657 38.3862
rtibia 32.2231
rfoot -15.5149 -24.6016
rtoes -16.2279
lfemur -70.3931 -18.7446 22.2412
ltibia 18.3618
lfoot 1.07917 15.0488
ltoes -35.9368
932
root -0.392869 17.4622 0.883391 -489.639 43.3602 -534.959
lowerback 24.0246 -0.720013 -8.12238
upperback 14.5935 -1.1575 -5.03344
thorax 3.00224 -0.37372 -0.61323
lowerneck -7.74695 -12.945 -9.00033
upperneck 23.479 -20.6525 18.0806
head 11.9764 -8.60366 5.15015
rclavicle 6.04305e-014 -3.97569e-015
rhumerus 79.811 0.00225863 -16.7346
rradius 22.6063
rwrist 59.9952
rhand -28.3999 39.3604
rfingers 7.12502
rthumb -1.77214 9.38803
lclavicle 6.04305e-014 -3.97569e-015
lhumerus 44.3642 -57.7471 68.7527
lradius 113.458
lwrist 101.31
lhand -16.632 24.6542
lfingers 7.12502
lthumb 9.59039 54.4159
rfemur -58.1816 -14.4441 38.2442
rtibia 32.2233
rfoot -15.3887 -24.5668
rtoes -16.4097
lfemur -69.9935 -18.7661 21.8634
ltibia 18.4415
lfoot 0.883861 14.8627
ltoes -35.5764
933
root -0.392344 17.4699 0.859411 -489.757 43.4943 -534.94
lowerback 24.0246 -0.720013 -8.12238
upperback 14.5935 -1.1575 -5.03344
thorax 3.00224 -0.37372 -0.61323
lowerneck -7.74695 -12.945 -9.00033
upperneck 23.479 -20.6525 18.0806
head 11.9764 -8.60366 5.15015
rclavicle 6.04305e-014 -3.97569e-015
rhumerus 79.811 0.00225863 -16.7346
rradius 22.6063
rwrist 59.9952
rhand -28.3999 39.3604
rfingers 7.12502
rthumb -1.77214 9.38803
lclavicle 6.04305e-014 -3.97569e-015
lhumerus 44.3642 -57.7471 68.7527
lradius 113.458
lwrist 101.31
lhand -16.632 24.6542
lfingers 7.12502
lthumb 9.59039 54.4159
rfemur -57.9967 -14.4536 38.0286
rtibia 32.2602
rfoot -15.1686 -24.5225
rtoes -16.525
lfemur -69.7863 -18.7875 21.4836
ltibia 18.5379
lfoot 0.75762 14.6734
ltoes -35.4821
934
root -0.399309 17.472 0.833836 -489.794 43.5866 -534.914
lowerback 24.0246 -0.720013 -8.12238
upperback 14.5935 -1.1575 -5.03344
thorax 3.00224 -0.37372 -0.61323
lowerneck -7.74695 -12.945 -9.00033
upperneck 23.479 -20.6525 18.0806
head 11.9764 -8.60366 5.15015
rclavicle 6.04305e-014 -3.97569e-015
rhumerus 79.811 0.00225863 -16.7346
rradius 22.6063
rwrist 59.9952
rhand -28.3999 39.3604
rfingers 7.12502
rthumb -1.77214 9.38803
lclavicle 6.04305e-014 -3.97569e-015
lhumerus 44.3642 -57.7471 68.7527
lradius 113.458
lwrist 101.31
lhand -16.632 24.6542
lfingers 7.12502
lthumb 9.59039 54.4159
rfemur -57.9913 -14.4326 37.8301
rtibia 32.4301
rfoot -15.0444 -24.5195
rtoes -16.2393
lfemur -69.701 -18.7851 21.1976
ltibia 18.625
lfoot 0.707537 14.5439
ltoes -35.3666
935
root -0.412691 17.4698 0.807759 -489.809 43.6354 -534.947
lowerback 24.0246 -0.720013 -8.12238
upperback 14.5935 -1.1575 -5.03344
thorax 3.00224 -0.37372 -0.61323
lowerneck -7.74695 -12.945 -9.00033
upperneck 23.479 -20.6525 18.0806
head 11.9764 -8.60366 5.15015
rclavicle 6.04305e-014 -3.97569e-015
rhumerus 79.811 0.00225863 -16.7346
rradius 22.6063
rwrist 59.9952
rhand -28.3999 39.3604
rfingers 7.12502
rthumb -1.77214 9.38803
lclavicle 6.04305e-014 -3.97569e-015
lhumerus 44.3642 -57.7471 68.7527
lradius 113.458
lwrist 101.31
lhand -16.632 24.6542
lfingers 7.12502
lthumb 9.59039 54.4159
rfemur -58.0941 -14.4758 37.6761
rtibia 32.63
rfoot -14.9878 -24.4172
rtoes -15.5577
lfemur -69.7347 -18.7533 20.9267
ltibia 18.7061
lfoot 0.571021 14.4234
ltoes -34.9508
936
root -0.413426 17.4792 0.78506 -489.897 43.7639 -534.841
lowerback 24.0246 -0.720013 -8.12238
upperback 14.5935 -1.1575 -5.03344
thorax 3.00224 -0.37372 -0.61323
lowerneck -7.74695 -12.945 -9.00033
upperneck 23.479 -20.6525 18.0806
head 11.9764 -8.60366 5.15015
rclavicle 6.04305e-014 -3.97569e-015
rhumerus 79.811 0.00225863 -16.7346
rradius 22.6063
rwrist 59.9952
rhand -28.3999 39.3604
rfingers 7.12502
rthumb -1.77214 9.38803
lclavicle 6.04305e-014 -3.97569e-015
lhumerus 44.3642 -57.7471 68.7527
lradius 113.458
lwrist 101.31
lhand -16.632 24.6542
lfingers 7.12502
lthumb 9.59039 54.4159
rfemur -57.916 -14.4576 37.5336
rtibia 32.8359
rfoot -14.9702 -24.2661
rtoes -14.7353
lfemur -69.4541 -18.7082 20.4937
ltibia 18.8257
lfoot 0.515083 14.1707
ltoes -35.1996
937
root -0.408498 17.4926 0.765365 -489.943 43.9823 -534.6
lowerback 24.0246 -0.720013 -8.12238
upperback 14.5935 -1.1575 -5.03344
thorax 3.00224 -0.37372 -0.61323
lowerneck -7.74695 -12.945 -9.00033
upperneck 23.479 -20.6525 18.0806
head 11.9764 -8.60366 5.15015
rclavicle 6.04305e-014 -3.97569e-015
rhumerus 79.811 0.00225863 -16.7346
rradius 22.6063
rwrist 59.9952
rhand -28.3999 39.3604
rfingers 7.12502
rthumb -1.77214 9.38803
lclavicle 6.04305e-014 -3.97569e-015
lhumerus 44.3642 -57.7471 68.7527
lradius 113.458
lwrist 101.31
lhand -16.632 24.6542
lfingers 7.12502
lthumb 9.59039 54.4159
rfemur -57.6048 -14.3164 37.372
rtibia 32.9354
rfoot -14.717 -24.2074
rtoes -14.6813
lfemur -69.0105 -18.6614 20.1474
ltibia 18.899
lfoot 0.380652 14.056
ltoes -35.0583
938
root -0.423574 17.4884 0.742604 -489.811 44.1219 -534.528
lowerback 24.0246 -0.720013 -8.12238
upperback 14.5935 -1.1575 -5.03344
thorax 3.00224 -0.37372 -0.61323
lowerneck -7.74695 -12.945 -9.00033
upperneck 23.479 -20.6525 18.0806
head 11.9764 -8.60366 5.15015
rclavicle 6.04305e-014 -3.97569e-015
rhumerus 79.811 0.00225863 -16.7346
rradius 22.6063
rwrist 59.9952
rhand -28.3999 39.3604
rfingers 7.12502
rthumb -1.77214 9.38803
lclavicle 6.04305e-014 -3.97569e-015
lhumerus 44.3642 -57.7471 68.7527
lradius 113.458
lwrist 101.31
lhand -16.632 24.6542
lfingers 7.12502
lthumb 9.59039 54.4159
rfemur -57.7709 -14.2877 37.2681
rtibia 32.9778
rfoot -14.3835 -24.1572
rtoes -15.3999
lfemur -69.0592 -18.5639 19.9825
ltibia 18.9568
lfoot 0.350832 14.0253
ltoes -34.817
939
root -0.413289 17.508 0.723815 -490.132 44.3594 -534.444
lowerback 24.0246 -0.720013 -8.12238
upperback 14.5935 -1.1575 -5.03344
thorax 3.00224 -0.37372 -0.61323
lowerneck -7.74695 -12.945 -9.00033
upperneck 23.479 -20.6525 18.0806
head 11.9764 -8.60366 5.15015
rclavicle 6.04305e-014 -3.97569e-015
rhumerus 79.811 0.00225863 -16.7346
rradius 22.6063
rwrist 59.9952
rhand -28.3999 39.3604
rfingers 7.12502
rthumb -1.77214 9.38803
lclavicle 6.04305e-014 -3.97569e-015
lhumerus 44.3642 -57.7471 68.7527
lradius 113.458
lwrist 101.31
lhand -16.632 24.6542
lfingers 7.12502
lthumb 9.59039 54.4159
rfemur -57.2334 -14.1016 36.8188
rtibia 32.9688
rfoot -14.3619 -24.3965
rtoes -16.2192
lfemur -68.4753 -18.7 19.5085
ltibia 18.9955
lfoot 0.170257 13.9554
ltoes -34.795
940
root -0.412338 17.5201 0.70352 -490.281 44.5715 -534.319
lowerback 24.0246 -0.720013 -8.12238
upperback 14.5935 -1.1575 -5.03344
thorax 3.00224 -0.37372 -0.61323
lowerneck -7.74695 -12.945 -9.00033
upperneck 23.479 -20.6525 18.0806
head 11.9764 -8.60366 5.15015
rclavicle 6.04305e-014 -3.97569e-015
rhumerus 79.811 0.00225863 -16.7346
rradius 22.6063
rwrist 59.9952
rhand -28.3999 39.3604
rfingers 7.12502
rthumb -1.77214 9.38803
lclavicle 6.04305e-014 -3.97569e-015
lhumerus 44.3642 -57.7471 68.7527
lradius 113.458
lwrist 101.31
lhand -16.632 24.6542
lfingers 7.12502
lthumb 9.59039 54.4159
rfemur -56.8999 -13.9475 36.5149
rtibia 32.9733
rfoot -14.1541 -24.5392
rtoes -16.54
lfemur -68.0529 -18.7668 19.201
ltibia 18.9894
lfoot 0.0849295 13.9129
ltoes -34.7019
941
root -0.416091 17.5287 0.683787 -490.37 44.8418 -534.283
lowerback 24.0246 -0.720013 -8.12238
upperback 14.5935 -1.1575 -5.03344
thorax 3.00224 -0.37372 -0.61323
lowerneck -7.74695 -12.945 -9.00033
upperneck 23.479 -20.6525 18.0806
head 11.9764 -8.60366 5.15015
rclavicle 6.04305e-014 -3.97569e-015
rhumerus 79.811 0.00225863 -16.7346
rradius 22.6063
rwrist 59.9952
rhand -28.3999 39.3604
rfingers 7.12502
rthumb -1.77214 9.38803
lclavicle 6.04305e-014 -3.97569e-015
lhumerus 44.3642 -57.7471 68.7527
lradius 113.458
lwrist 101.31
lhand -16.632 24.6542
lfingers 7.12502
lthumb 9.59039 54.4159
rfemur -56.744 -13.835 36.2161
rtibia 32.9773
rfoot -13.8968 -24.5776
rtoes -16.3457
lfemur -67.7375 -18.7266 18.7895
ltibia 18.9472
lfoot 0.0369169 13.807
ltoes -34.5752
942
root -0.418141 17.541 0.664264 -490.446 45.105 -534.197
lowerback 24.0246 -0.720013 -8.12238
upperback 14.5935 -1.1575 -5.03344
thorax 3.00224 -0.37372 -0.61323
lowerneck -7.74695 -12.945 -9.00033
upperneck 23.479 -20.6525 18.0806
head 11.9764 -8.60366 5.15015
rclavicle 6.04305e-014 -3.97569e-015
rhumerus 79.811 0.00225863 -16.7346
rradius 22.6063
rwrist 59.9952
rhand -28.3999 39.3604
rfingers 7.12502
rthumb -1.77214 9.38803
lclavicle 6.04305e-014 -3.97569e-015
lhumerus 44.3642 -57.7471 68.7527
lradius 113.458
lwrist 101.31
lhand -16.632 24.6542
lfingers 7.12502
lthumb 9.59039 54.4159
rfemur -56.5935 -13.6913 35.9492
rtibia 33.0646
rfoot -13.7516 -24.6227
rtoes -16.1585
lfemur -67.41 -18.6672 18.3871
ltibia 18.9587
lfoot -0.0869398 13.7064
ltoes -34.2419
